HIERARCHY
ROOT joint_Root
{
  OFFSET 0 0 0
  CHANNELS 6 Xposition Yposition Zposition Zrotation Xrotation Yrotation
  JOINT Hips
  {
    OFFSET 0 93.9241 -3
    CHANNELS 6 Xposition Yposition Zposition Zrotation Xrotation Yrotation
    JOINT Spine
    {
      OFFSET 15.7357 0 0
      CHANNELS 6 Xposition Yposition Zposition Zrotation Xrotation Yrotation
      JOINT Chest
      {
        OFFSET 8.98455 -0.406207 0
        CHANNELS 6 Xposition Yposition Zposition Zrotation Xrotation Yrotation
        JOINT Neck
        {
          OFFSET 16.3773 0 0
          CHANNELS 6 Xposition Yposition Zposition Zrotation Xrotation Yrotation
          JOINT Head
          {
            OFFSET 6.45672 0 0
            CHANNELS 6 Xposition Yposition Zposition Zrotation Xrotation Yrotation
            End Site
            {
              OFFSET 0 0 0
            }
          }
        }
        JOINT Shoulder_L
        {
          OFFSET 12.9942 -0.242716 4.98039
          CHANNELS 6 Xposition Yposition Zposition Zrotation Xrotation Yrotation
          JOINT UpperArm_L
          {
            OFFSET 5.34809 0 0
            CHANNELS 6 Xposition Yposition Zposition Zrotation Xrotation Yrotation
            JOINT LowerArm_L
            {
              OFFSET 24.3286 1.87007e-05 0
              CHANNELS 6 Xposition Yposition Zposition Zrotation Xrotation Yrotation
              JOINT Hand_L
              {
                OFFSET 22.2916 0 0
                CHANNELS 6 Xposition Yposition Zposition Zrotation Xrotation Yrotation
                End Site
                {
                  OFFSET 0 0 0
                }
              }
            }
          }
        }
        JOINT Shoulder_R
        {
          OFFSET 12.9945 -0.242716 -4.98039
          CHANNELS 6 Xposition Yposition Zposition Zrotation Xrotation Yrotation
          JOINT UpperArm_R
          {
            OFFSET -5.34813 0 0
            CHANNELS 6 Xposition Yposition Zposition Zrotation Xrotation Yrotation
            JOINT LowerArm_R
            {
              OFFSET -24.3289 0.000322201 0
              CHANNELS 6 Xposition Yposition Zposition Zrotation Xrotation Yrotation
              JOINT Hand_R
              {
                OFFSET -22.2915 -0.000108084 0
                CHANNELS 6 Xposition Yposition Zposition Zrotation Xrotation Yrotation
                End Site
                {
                  OFFSET 0 0 0
                }
              }
            }
          }
        }
      }
    }
    JOINT UpperLeg_L
    {
      OFFSET -2.19248 -6.46944 0
      CHANNELS 6 Xposition Yposition Zposition Zrotation Xrotation Yrotation
      JOINT LowerLeg_L
      {
        OFFSET 39.0811 0 -1.23785e-05
        CHANNELS 6 Xposition Yposition Zposition Zrotation Xrotation Yrotation
        JOINT Foot_L
        {
          OFFSET 40.9854 0 -1.26872e-05
          CHANNELS 6 Xposition Yposition Zposition Zrotation Xrotation Yrotation
          JOINT Toes_L
          {
            OFFSET 11.7543 0 0
            CHANNELS 6 Xposition Yposition Zposition Zrotation Xrotation Yrotation
            End Site
            {
              OFFSET 0 0 0
            }
          }
        }
      }
    }
    JOINT UpperLeg_R
    {
      OFFSET -2.19251 6.46944 0
      CHANNELS 6 Xposition Yposition Zposition Zrotation Xrotation Yrotation
      JOINT LowerLeg_R
      {
        OFFSET -39.0811 -0.00228153 -0.0401928
        CHANNELS 6 Xposition Yposition Zposition Zrotation Xrotation Yrotation
        JOINT Foot_R
        {
          OFFSET -40.9854 0 0
          CHANNELS 6 Xposition Yposition Zposition Zrotation Xrotation Yrotation
          JOINT Toes_R
          {
            OFFSET -11.7543 0 0
            CHANNELS 6 Xposition Yposition Zposition Zrotation Xrotation Yrotation
            End Site
            {
              OFFSET 0 0 0
            }
          }
        }
      }
    }
  }
}
MOTION
Frames:	7
Frame Time:	0.0333333
0 0 0 0 0 -0 -2.27383 92.6762 -2.603 94.2452 -6.60765 -8.08207 15.7357 5.1072e-06 -5.51765e-07 -156.078 88.1217 154.004 8.98455 -0.406207 -4.3199e-07 -9.22971 3.72833 -3.8584 16.3773 -1.3905e-06 -6.99897e-07 -10.7935 1.42457 -0.884831 6.45672 -1.25837e-06 -1.02172e-07 18.6196 -1.89997 1.53913 12.9942 -0.242716 4.98039 -86.7934 -15.8496 -93.4074 5.34809 -7.22636e-06 -6.2814e-07 -33.4954 -5.05281 -75.3164 24.3286 1.87007e-05 4.90208e-06 3.51202 41.4269 -5.29925 22.2916 -9.88446e-07 4.63217e-06 66.4774 5.54844 -8.64138 12.9945 -0.242716 -4.98039 91.2547 -16.6016 -100.616 -5.34813 -1.25947e-06 -3.79883e-06 -50.1216 -2.79512 -75.9065 -24.3289 0.000322201 -8.65921e-06 -0.0372803 39.2456 0.00421078 -22.2915 -0.000108084 -4.47941e-06 68.9819 5.67378 -17.5186 -2.19248 -6.46944 -1.22534e-07 174.041 2.61999 -17.6624 39.0811 -6.73843e-06 -1.23785e-05 0.0285252 -0.0673435 15.6875 40.9854 -6.48686e-06 -1.26872e-05 2.5822 -2.79302 -56.8633 11.7543 -2.30145e-07 3.05095e-06 -0.070524 0.0584485 -16.5738 -2.19251 6.46944 -1.45247e-06 -176.2 19.3093 172.616 -39.0811 -0.00228153 -0.0401928 -0.00114342 0.0420393 11.8501 -40.9854 7.72618e-06 5.99936e-06 2.05968 -13.3656 -65.8089 -11.7543 -5.6619e-06 -5.58687e-06 -0.146336 0.0811905 -16.5739 
0 0 0 0 0 -0 -2.41629 92.6597 -2.46492 94.3554 -6.31736 -7.90929 15.7357 5.1072e-06 -5.51765e-07 -154.555 88.1824 152.378 8.98455 -0.406207 -4.3199e-07 -9.26629 3.5935 -4.076 16.3773 -1.3905e-06 -6.99897e-07 -10.7603 0.945918 -0.465301 6.45672 -1.25837e-06 -1.02172e-07 18.2411 -2.0909 2.55053 12.9942 -0.242716 4.98039 -86.7339 -15.9318 -93.2556 5.34809 -7.22636e-06 -6.2814e-07 -31.5533 -3.8109 -75.4145 24.3286 1.87007e-05 4.90208e-06 3.34298 33.4944 -6.04692 22.2916 -9.88446e-07 4.63217e-06 67.6559 5.47367 -5.52735 12.9945 -0.242716 -4.98039 91.2679 -16.9987 -100.671 -5.34813 -1.25947e-06 -3.79883e-06 -44.0581 -0.422053 -75.5813 -24.3289 0.000322201 -8.65921e-06 0.0543809 30.1591 -0.118578 -22.2915 -0.000108084 -4.47941e-06 70.7061 5.66351 -16.5373 -2.19248 -6.46944 -1.22534e-07 173.986 2.51898 -17.4331 39.0811 -6.73843e-06 -1.23785e-05 0.0280947 -0.064243 15.8055 40.9854 -6.48686e-06 -1.26872e-05 2.54144 -2.40696 -57.0374 11.7543 -2.30145e-07 3.05095e-06 -0.0608413 0.050606 -16.5745 -2.19251 6.46944 -1.45247e-06 -176.265 19.9309 173.005 -39.0811 -0.00228153 -0.0401928 -0.000210623 0.0446089 11.6663 -40.9854 7.72618e-06 5.99936e-06 2.11497 -13.0588 -65.8968 -11.7543 -5.6619e-06 -5.58687e-06 -0.131882 0.0726981 -16.574 
0 0 0 0 0 -0 -2.59109 92.6443 -2.32032 94.4719 -6.04376 -7.72619 15.7357 5.1072e-06 -5.51765e-07 -154.722 88.1643 152.453 8.98455 -0.406207 -4.3199e-07 -9.26822 3.64423 -4.25635 16.3773 -1.3905e-06 -6.99897e-07 -10.6706 0.353364 0.0229468 6.45672 -1.25837e-06 -1.02172e-07 17.8102 -2.28467 3.04996 12.9942 -0.242716 4.98039 -86.8845 -15.7229 -93.6429 5.34809 -7.22636e-06 -6.2814e-07 -38.1227 -4.20826 -75.1066 24.3286 1.87007e-05 4.90208e-06 3.76115 22.8504 -9.61243 22.2916 -9.88446e-07 4.63217e-06 67.322 5.34694 -1.27654 12.9945 -0.242716 -4.98039 91.2506 -16.6621 -100.646 -5.34813 -1.25947e-06 -3.79883e-06 -51.9194 -0.980417 -74.579 -24.3289 0.000322201 -8.65921e-06 1.12648 13.8928 -4.71671 -22.2915 -0.000108084 -4.47941e-06 71.2183 5.61378 -12.2296 -2.19248 -6.46944 -1.22534e-07 173.978 2.63304 -17.1929 39.0811 -6.73843e-06 -1.23785e-05 0.0276697 -0.06149 15.9082 40.9854 -6.48686e-06 -1.26872e-05 2.44638 -2.31978 -57.1899 11.7543 -2.30145e-07 3.05095e-06 -0.065975 0.0550224 -16.5741 -2.19251 6.46944 -1.45247e-06 -176.336 20.5834 173.438 -39.0811 -0.00228153 -0.0401928 -0.000988708 0.0478821 11.428 -40.9854 7.72618e-06 5.99936e-06 2.17966 -12.7448 -65.9673 -11.7543 -5.6619e-06 -5.58687e-06 -0.146962 0.0805802 -16.5741 
0 0 0 0 0 -0 -2.76042 92.6085 -2.15121 94.5731 -6.14769 -7.55433 15.7357 5.1072e-06 -5.51765e-07 -155.141 88.0652 152.786 8.98455 -0.406207 -4.3199e-07 -9.3213 3.84841 -4.41024 16.3773 -1.3905e-06 -6.99897e-07 -10.6896 0.0376435 0.418923 6.45672 -1.25837e-06 -1.02172e-07 17.6111 -2.47038 3.53635 12.9942 -0.242716 4.98039 -87.035 -15.2861 -93.8847 5.34809 -7.22636e-06 -6.2814e-07 -44.6911 -5.15559 -74.6064 24.3286 1.87007e-05 4.90208e-06 5.99135 27.0962 -12.9742 22.2916 -9.88446e-07 4.63217e-06 64.4311 5.32591 -0.694336 12.9945 -0.242716 -4.98039 91.1158 -15.9903 -100.956 -5.34813 -1.25947e-06 -3.79883e-06 -61.046 -2.63867 -73.6124 -24.3289 0.000322201 -8.65921e-06 1.27211 8.66087 -8.39486 -22.2915 -0.000108084 -4.47941e-06 70.2399 5.58901 -10.7487 -2.19248 -6.46944 -1.22534e-07 173.974 2.62414 -17.0779 39.0811 -6.73843e-06 -1.23785e-05 0.0289944 -0.0637238 16.2412 40.9854 -6.48686e-06 -1.26872e-05 2.31708 -2.43949 -57.488 11.7543 -2.30145e-07 3.05095e-06 -0.0713643 0.0594514 -16.5739 -2.19251 6.46944 -1.45247e-06 -176.441 21.1688 173.754 -39.0811 -0.00228153 -0.0401928 -0.00411789 0.0411122 11.4374 -40.9854 7.72618e-06 5.99936e-06 2.26446 -12.0947 -66.1706 -11.7543 -5.6619e-06 -5.58687e-06 -0.137591 0.0755118 -16.5741 
0 0 0 0 0 -0 -2.90803 92.5642 -1.98328 94.7469 -6.20865 -7.37223 15.7357 5.1072e-06 -5.51765e-07 -155.684 88.0496 153.231 8.98455 -0.406207 -4.3199e-07 -9.29627 3.90612 -4.60316 16.3773 -1.3905e-06 -6.99897e-07 -10.9073 -0.155938 0.653996 6.45672 -1.25837e-06 -1.02172e-07 17.5149 -2.49328 4.01489 12.9942 -0.242716 4.98039 -87.0496 -14.9693 -93.7155 5.34809 -7.22636e-06 -6.2814e-07 -43.9105 -5.23127 -74.4418 24.3286 1.87007e-05 4.90208e-06 8.96389 39.6208 -13.8962 22.2916 -9.88446e-07 4.63217e-06 64.8881 5.45014 -4.61285 12.9945 -0.242716 -4.98039 91.1115 -15.3402 -100.805 -5.34813 -1.25947e-06 -3.79883e-06 -64.7365 -4.0425 -73.9978 -24.3289 0.000322201 -8.65921e-06 3.38748 27.6302 -7.28961 -22.2915 -0.000108084 -4.47941e-06 67.3638 5.63258 -13.5465 -2.19248 -6.46944 -1.22534e-07 173.918 2.87606 -16.9377 39.0811 -6.73843e-06 -1.23785e-05 0.0298548 -0.0641834 16.5567 40.9854 -6.48686e-06 -1.26872e-05 2.18309 -2.70661 -57.7795 11.7543 -2.30145e-07 3.05095e-06 -0.0681048 0.0567203 -16.574 -2.19251 6.46944 -1.45247e-06 -176.638 21.3014 173.904 -39.0811 -0.00228153 -0.0401928 -0.00152755 0.0338941 11.7565 -40.9854 7.72618e-06 5.99936e-06 2.24186 -11.985 -66.4942 -11.7543 -5.6619e-06 -5.58687e-06 -0.152176 0.0835447 -16.5741 
0 0 0 0 0 -0 -3.0537 92.5606 -1.90757 94.8977 -5.93072 -7.38075 15.7357 5.1072e-06 -5.51765e-07 -155.54 88.1057 152.98 8.98455 -0.406207 -4.3199e-07 -9.25595 3.81556 -4.82849 16.3773 -1.3905e-06 -6.99897e-07 -11.1985 -0.498227 0.964022 6.45672 -1.25837e-06 -1.02172e-07 17.3305 -2.58713 4.31731 12.9942 -0.242716 4.98039 -87.0601 -14.7682 -93.6089 5.34809 -7.22636e-06 -6.2814e-07 -37.4756 -4.14423 -74.7939 24.3286 1.87007e-05 4.90208e-06 7.81925 40.7887 -11.8708 22.2916 -9.88446e-07 4.63217e-06 66.8684 5.46036 -5.01704 12.9945 -0.242716 -4.98039 91.1966 -15.0418 -100.398 -5.34813 -1.25947e-06 -3.79883e-06 -55.0793 -2.49362 -74.5348 -24.3289 0.000322201 -8.65921e-06 2.71378 39.8734 -4.22921 -22.2915 -0.000108084 -4.47941e-06 68.9011 5.65484 -15.4734 -2.19248 -6.46944 -1.22534e-07 173.905 3.18045 -16.8372 39.0811 -6.73843e-06 -1.23785e-05 0.0284024 -0.060144 16.4628 40.9854 -6.48686e-06 -1.26872e-05 2.08354 -2.71499 -57.7838 11.7543 -2.30145e-07 3.05095e-06 -0.059614 0.0498305 -16.5744 -2.19251 6.46944 -1.45247e-06 -176.676 21.3371 174.062 -39.0811 -0.00228153 -0.0401928 -0.00446798 0.0324353 11.5467 -40.9854 7.72618e-06 5.99936e-06 2.27236 -12.25 -66.4981 -11.7543 -5.6619e-06 -5.58687e-06 -0.158786 0.0866759 -16.5742 
0 0 0 0 0 -0 -3.18798 92.5992 -1.94506 94.9649 -5.57439 -7.66217 15.7357 5.1072e-06 -5.51765e-07 -153.071 88.1448 150.441 8.98455 -0.406207 -4.3199e-07 -9.36738 3.68807 -4.97412 16.3773 -1.3905e-06 -6.99897e-07 -11.2084 -0.829262 1.18356 6.45672 -1.25837e-06 -1.02172e-07 16.8567 -2.75063 4.7633 12.9942 -0.242716 4.98039 -87.0522 -14.6854 -93.518 5.34809 -7.22636e-06 -6.2814e-07 -39.3181 -4.16233 -75.5471 24.3286 1.87007e-05 4.90208e-06 6.05179 31.6298 -11.4336 22.2916 -9.88446e-07 4.63217e-06 66.4796 5.37164 -2.02549 12.9945 -0.242716 -4.98039 91.2046 -15.2583 -100.432 -5.34813 -1.25947e-06 -3.79883e-06 -48.1873 -0.541013 -74.5293 -24.3289 0.000322201 -8.65921e-06 1.63329 31.5565 -3.12533 -22.2915 -0.000108084 -4.47941e-06 70.9147 5.64721 -14.7775 -2.19248 -6.46944 -1.22534e-07 173.954 3.27727 -16.906 39.0811 -6.73843e-06 -1.23785e-05 0.0252105 -0.0532767 16.0039 40.9854 -6.48686e-06 -1.26872e-05 2.03496 -2.44747 -57.5178 11.7543 -2.30145e-07 3.05095e-06 -0.0706645 0.0593289 -16.574 -2.19251 6.46944 -1.45247e-06 -176.479 21.59 174.089 -39.0811 -0.00228153 -0.0401928 -0.00238043 0.0330718 10.8225 -40.9854 7.72618e-06 5.99936e-06 2.41988 -12.3484 -66.157 -11.7543 -5.6619e-06 -5.58687e-06 -0.180977 0.0981703 -16.5742 
